<svg width="20" height="20" viewBox="0 0 20 20" fill="none" xmlns="http://www.w3.org/2000/svg">
<rect width="20" height="20" fill="white"/>
<rect x="2" y="2" width="16" height="16" rx="2" fill="#009AB7"/>
<path fill-rule="evenodd" clip-rule="evenodd" d="M14.602 13.0909C14.8218 13.0909 15 13.2944 15 13.5455C15 13.7686 14.8592 13.9542 14.6736 13.9927L14.602 14H7.2551C7.03532 14 6.85714 13.7965 6.85714 13.5455C6.85714 13.3223 6.99792 13.1367 7.18357 13.0982L7.2551 13.0909H14.602ZM5.46429 13.0909C5.7207 13.0909 5.92857 13.2944 5.92857 13.5455C5.92857 13.7965 5.7207 14 5.46429 14C5.20787 14 5 13.7965 5 13.5455C5 13.2944 5.20787 13.0909 5.46429 13.0909ZM14.602 9.54545C14.8218 9.54545 15 9.74896 15 10C15 10.2231 14.8592 10.4087 14.6736 10.4472L14.602 10.4545H7.2551C7.03532 10.4545 6.85714 10.251 6.85714 10C6.85714 9.77685 6.99792 9.59127 7.18357 9.55278L7.2551 9.54545H14.602ZM5.46429 9.54545C5.7207 9.54545 5.92857 9.74896 5.92857 10C5.92857 10.251 5.7207 10.4545 5.46429 10.4545C5.20787 10.4545 5 10.251 5 10C5 9.74896 5.20787 9.54545 5.46429 9.54545ZM14.602 6C14.8218 6 15 6.20351 15 6.45455C15 6.67769 14.8592 6.86328 14.6736 6.90177L14.602 6.90909H7.2551C7.03532 6.90909 6.85714 6.70558 6.85714 6.45455C6.85714 6.2314 6.99792 6.04581 7.18357 6.00732L7.2551 6H14.602ZM5.46429 6C5.7207 6 5.92857 6.20351 5.92857 6.45455C5.92857 6.70558 5.7207 6.90909 5.46429 6.90909C5.20787 6.90909 5 6.70558 5 6.45455C5 6.20351 5.20787 6 5.46429 6Z" fill="white"/>
</svg>
