<svg width="20" height="20" viewBox="0 0 20 20" fill="none" xmlns="http://www.w3.org/2000/svg">
<rect width="20" height="20" fill="white"/>
<rect x="2" y="2" width="16" height="16" rx="2" fill="#FFCE4D"/>
<path d="M5.86957 11.4286C6.08301 11.4286 6.26053 11.5549 6.29735 11.7215L6.30435 11.7857V14.6429C6.30435 14.8401 6.10969 15 5.86957 15C5.65613 15 5.47861 14.8737 5.44179 14.7071L5.43479 14.6429V11.7857C5.43479 11.5885 5.62945 11.4286 5.86957 11.4286ZM13.6956 8.57144C13.9091 8.57144 14.0866 8.69778 14.1234 8.86438L14.1304 8.92858V14.6429C14.1304 14.8401 13.9358 15 13.6956 15C13.4822 15 13.3047 14.8737 13.2679 14.7071L13.2609 14.6429V8.92858C13.2609 8.73134 13.4555 8.57144 13.6956 8.57144ZM11.0869 10.7143C11.3004 10.7143 11.4779 10.8406 11.5147 11.0072L11.5217 11.0714V14.6429C11.5217 14.8401 11.3271 15 11.0869 15C10.8735 15 10.696 14.8737 10.6592 14.7071L10.6522 14.6429V11.0714C10.6522 10.8742 10.8468 10.7143 11.0869 10.7143ZM8.47826 9.28572C8.6917 9.28572 8.86922 9.41206 8.90604 9.57867L8.91304 9.64286V14.6429C8.91304 14.8401 8.71838 15 8.47826 15C8.26482 15 8.0873 14.8737 8.05048 14.7071L8.04348 14.6429V9.64286C8.04348 9.44562 8.23814 9.28572 8.47826 9.28572ZM14.8368 5.07827C15.0035 5.1878 15.046 5.37755 14.9481 5.52654L14.9047 5.58026L11.4265 9.15168C11.2912 9.29053 11.056 9.32423 10.8741 9.24006L10.8086 9.20294L8.52522 7.64072L5.76199 10.2352C5.62144 10.3671 5.38879 10.3937 5.21191 10.3067L5.14848 10.2688C4.98785 10.1533 4.95553 9.96223 5.06139 9.81693L5.10758 9.76483L8.15105 6.90769C8.28922 6.77798 8.51694 6.74983 8.69319 6.83235L8.7566 6.8685L11.0243 8.42001L14.2257 5.13405C14.3757 4.98003 14.6493 4.95506 14.8368 5.07827Z" fill="white"/>
</svg>
