<svg width="20" height="20" viewBox="0 0 20 20" fill="none" xmlns="http://www.w3.org/2000/svg">
<rect width="20" height="20" fill="white"/>
<rect x="2" y="2" width="16" height="16" rx="2" fill="#FB8333"/>
<path d="M10.1436 5.71436C10.6919 5.71441 11.2177 5.81027 11.7061 5.98486L11.1357 6.55518C10.8188 6.47262 10.4863 6.42826 10.1436 6.42822C7.97376 6.42822 6.21387 8.188 6.21387 10.3579C6.21429 12.5275 7.97402 14.2866 10.1436 14.2866C12.3129 14.2864 14.0718 12.5273 14.0723 10.3579C14.0723 9.99715 14.0217 9.6478 13.9307 9.31592L14.499 8.74756C14.6844 9.24917 14.7861 9.79187 14.7861 10.3579C14.7858 12.9219 12.7074 15.0012 10.1436 15.0015C7.57948 15.0015 5.50037 12.922 5.5 10.3579C5.5 7.79348 7.57925 5.71436 10.1436 5.71436ZM10.1426 8.21436C10.3353 8.21436 10.5216 8.24184 10.6992 8.28955L10.0566 8.93213C9.30801 8.97688 8.71407 9.59711 8.71387 10.3569C8.71398 11.1457 9.35386 11.7854 10.1426 11.7856C10.8986 11.7856 11.5151 11.1979 11.5654 10.4546L12.2119 9.80811C12.2585 9.98375 12.2861 10.1676 12.2861 10.3579C12.2858 11.5412 11.3259 12.5005 10.1426 12.5005C8.95951 12.5002 8.00037 11.541 8 10.3579C8 9.17449 8.95928 8.21463 10.1426 8.21436ZM13.7148 6.78564H15.501L13.3584 8.92822H12.0742L10.3896 10.6157C10.247 10.7517 10.0209 10.7466 9.88477 10.604C9.7637 10.4772 9.75485 10.2839 9.85449 10.147L9.89648 10.0991L11.5723 8.42041V7.14209L13.7148 4.99951V6.78564ZM12.2861 7.45361V8.21436H13.0469L13.7627 7.49951H13.001V6.72803L12.2861 7.45361Z" fill="white"/>
</svg>
