<svg width="20" height="20" viewBox="0 0 20 20" fill="none" xmlns="http://www.w3.org/2000/svg">
<rect width="20" height="20" fill="white"/>
<path d="M17.2 4.75H10L8.2 3H2.8C1.81 3 1.009 3.7875 1.009 4.75L1 15.25C1 16.2125 1.81 17 2.8 17H17.2C18.19 17 19 16.2125 19 15.25V6.5C19 5.5375 18.19 4.75 17.2 4.75Z" fill="#1A7FE0"/>
<path fill-rule="evenodd" clip-rule="evenodd" d="M11.85 10.3215C11.9693 10.3215 12.0838 10.2632 12.1682 10.1594C12.2526 10.0556 12.3 9.91477 12.3 9.76795C12.3 9.62113 12.2526 9.48032 12.1682 9.37651C12.0838 9.27269 11.9693 9.21436 11.85 9.21436H11.4C11.2807 9.21436 11.1662 9.27269 11.0818 9.37651C10.9974 9.48032 10.95 9.62113 10.95 9.76795C10.95 9.91477 10.9974 10.0556 11.0818 10.1594C11.1662 10.2632 11.2807 10.3215 11.4 10.3215H11.85ZM14.55 15.8928H14.1V7.55359C14.1 7.40677 14.0526 7.26596 13.9682 7.16214C13.8838 7.05832 13.7693 7 13.65 7H7.35C7.23065 7 7.11619 7.05832 7.0318 7.16214C6.94741 7.26596 6.9 7.40677 6.9 7.55359V15.8928H6.45C6.33065 15.8928 6.21619 15.9511 6.1318 16.055C6.04741 16.1588 6 16.2996 6 16.4464C6 16.5932 6.04741 16.734 6.1318 16.8379C6.21619 16.9417 6.33065 17 6.45 17H14.55C14.6693 17 14.7838 16.9417 14.8682 16.8379C14.9526 16.734 15 16.5932 15 16.4464C15 16.2996 14.9526 16.1588 14.8682 16.055C14.7838 15.9511 14.6693 15.8928 14.55 15.8928ZM11.85 15.8928L9.1746 15.8928V13.6431H11.85V15.8928ZM9.6 10.3215H9.15C9.03065 10.3215 8.91619 10.2632 8.8318 10.1594C8.74741 10.0556 8.7 9.91477 8.7 9.76795C8.7 9.62113 8.74741 9.48032 8.8318 9.37651C8.91619 9.27269 9.03065 9.21436 9.15 9.21436H9.6C9.71935 9.21436 9.83381 9.27269 9.9182 9.37651C10.0026 9.48032 10.05 9.62113 10.05 9.76795C10.05 9.91477 10.0026 10.0556 9.9182 10.1594C9.83381 10.2632 9.71935 10.3215 9.6 10.3215ZM9.15 12.5359H9.6C9.71935 12.5359 9.83381 12.4776 9.9182 12.3738C10.0026 12.2699 10.05 12.1291 10.05 11.9823C10.05 11.8355 10.0026 11.6947 9.9182 11.5909C9.83381 11.487 9.71935 11.4287 9.6 11.4287H9.15C9.03065 11.4287 8.91619 11.487 8.8318 11.5909C8.74741 11.6947 8.7 11.8355 8.7 11.9823C8.7 12.1291 8.74741 12.2699 8.8318 12.3738C8.91619 12.4776 9.03065 12.5359 9.15 12.5359ZM11.85 12.5359H11.4C11.2807 12.5359 11.1662 12.4776 11.0818 12.3738C10.9974 12.2699 10.95 12.1291 10.95 11.9823C10.95 11.8355 10.9974 11.6947 11.0818 11.5909C11.1662 11.487 11.2807 11.4287 11.4 11.4287H11.85C11.9693 11.4287 12.0838 11.487 12.1682 11.5909C12.2526 11.6947 12.3 11.8355 12.3 11.9823C12.3 12.1291 12.2526 12.2699 12.1682 12.3738C12.0838 12.4776 11.9693 12.5359 11.85 12.5359Z" fill="#E6F1FC"/>
</svg>
