<svg width="20" height="20" viewBox="0 0 20 20" fill="none" xmlns="http://www.w3.org/2000/svg">
<rect width="20" height="20" fill="white"/>
<path d="M17.2 4.75H10L8.2 3H2.8C1.81 3 1.009 3.7875 1.009 4.75L1 15.25C1 16.2125 1.81 17 2.8 17H17.2C18.19 17 19 16.2125 19 15.25V6.5C19 5.5375 18.19 4.75 17.2 4.75Z" fill="#008DAA"/>
<path d="M7.34512 10.8269H14.2202C14.3391 10.8269 14.4531 10.8907 14.5372 11.0043C14.6213 11.118 14.6685 11.272 14.6685 11.4327C14.6685 11.5934 14.6213 11.7474 14.5372 11.861C14.4531 11.9746 14.3391 12.0385 14.2202 12.0385H7.34512C7.2262 12.0385 7.11216 11.9746 7.02807 11.861C6.94399 11.7474 6.89675 11.5934 6.89675 11.4327C6.89675 11.272 6.94399 11.118 7.02807 11.0043C7.11216 10.8907 7.2262 10.8269 7.34512 10.8269ZM14.4547 8C15.0681 8 15.5653 8.49722 15.5653 9.11058C15.5653 9.72393 15.0681 10.2212 14.4547 10.2212H7.11058C6.49722 10.2212 6 9.72393 6 9.11058C6 8.49722 6.49722 8 7.11058 8H14.4547ZM8.52265 12.6442H10.1848V17H8.52265V12.6442ZM11.0816 12.6442H12.7256V17H11.0816V12.6442Z" fill="#E1F3F8"/>
</svg>
