<svg width="20" height="20" viewBox="0 0 20 20" fill="none" xmlns="http://www.w3.org/2000/svg">
<rect width="20" height="20" fill="white"/>
<path d="M17.2 4.75H10L8.2 3H2.8C1.81 3 1.009 3.7875 1.009 4.75L1 15.25C1 16.2125 1.81 17 2.8 17H17.2C18.19 17 19 16.2125 19 15.25V6.5C19 5.5375 18.19 4.75 17.2 4.75Z" fill="#D0419B"/>
<path fill-rule="evenodd" clip-rule="evenodd" d="M15.173 7.88517C15.1103 7.77098 14.9903 7.70001 14.86 7.70001H8.13968C8.00938 7.70001 7.88942 7.77098 7.82668 7.88517L6.54398 10.2197C6.51502 10.2724 6.49984 10.3315 6.49984 10.3917V16.6286C6.49984 16.8258 6.65974 16.9857 6.85698 16.9857H16.1427C16.3399 16.9857 16.4998 16.8258 16.4998 16.6286V10.3917C16.4998 10.3315 16.4847 10.2724 16.4557 10.2197L15.173 7.88517ZM8.34984 8.4143H11.0156V9.84287H7.56551L8.34984 8.4143ZM11.9649 9.84287V8.4143H14.6491L15.4334 9.84287H11.9649ZM7.56551 12.9857H11.0156V14.9857H7.56551V12.9857Z" fill="#FAEAF4"/>
</svg>
