<svg width="20" height="20" viewBox="0 0 20 20" fill="none" xmlns="http://www.w3.org/2000/svg">
<rect width="20" height="20" fill="white"/>
<path d="M17.2 4.75H10L8.2 3H2.8C1.81 3 1.009 3.7875 1.009 4.75L1 15.25C1 16.2125 1.81 17 2.8 17H17.2C18.19 17 19 16.2125 19 15.25V6.5C19 5.5375 18.19 4.75 17.2 4.75Z" fill="#73478B"/>
<path fill-rule="evenodd" clip-rule="evenodd" d="M15.0833 13.1191C15.1496 13.1191 15.2132 13.0819 15.2601 13.0156C15.307 12.9494 15.3333 12.8596 15.3333 12.7659C15.3333 12.6722 15.307 12.5824 15.2601 12.5161C15.2132 12.4499 15.1496 12.4127 15.0833 12.4127H14.8333C14.767 12.4127 14.7034 12.4499 14.6566 12.5161C14.6097 12.5824 14.5833 12.6722 14.5833 12.7659C14.5833 12.8596 14.6097 12.9494 14.6566 13.0156C14.7034 13.0819 14.767 13.1191 14.8333 13.1191H15.0833ZM16.5833 16.2936H16.3333V11.3531C16.3333 11.2595 16.307 11.1696 16.2601 11.1034C16.2132 11.0372 16.1496 11 16.0833 11H12.5833C12.517 11 12.4534 11.0372 12.4066 11.1034C12.3597 11.1696 12.3333 11.2595 12.3333 11.3531V16.2936H12.0833C12.017 16.2936 11.9534 16.3308 11.9066 16.397C11.8597 16.4633 11.8333 16.5531 11.8333 16.6468C11.8333 16.7405 11.8597 16.8303 11.9066 16.8965C11.9534 16.9628 12.017 17 12.0833 17H16.5833C16.6496 17 16.7132 16.9628 16.7601 16.8965C16.807 16.8303 16.8333 16.7405 16.8333 16.6468C16.8333 16.5531 16.807 16.4633 16.7601 16.397C16.7132 16.3308 16.6496 16.2936 16.5833 16.2936ZM15.0833 16.2936L13.597 16.2936V15.2382H15.0833V16.2936ZM13.8333 13.1191H13.5833C13.517 13.1191 13.4534 13.0819 13.4066 13.0156C13.3597 12.9494 13.3333 12.8596 13.3333 12.7659C13.3333 12.6722 13.3597 12.5824 13.4066 12.5161C13.4534 12.4499 13.517 12.4127 13.5833 12.4127H13.8333C13.8996 12.4127 13.9632 12.4499 14.0101 12.5161C14.057 12.5824 14.0833 12.6722 14.0833 12.7659C14.0833 12.8596 14.057 12.9494 14.0101 13.0156C13.9632 13.0819 13.8996 13.1191 13.8333 13.1191ZM13.5833 14.5318H13.8333C13.8996 14.5318 13.9632 14.4946 14.0101 14.4284C14.057 14.3621 14.0833 14.2723 14.0833 14.1786C14.0833 14.085 14.057 13.9951 14.0101 13.9289C13.9632 13.8627 13.8996 13.8254 13.8333 13.8254H13.5833C13.517 13.8254 13.4534 13.8627 13.4066 13.9289C13.3597 13.9951 13.3333 14.085 13.3333 14.1786C13.3333 14.2723 13.3597 14.3621 13.4066 14.4284C13.4534 14.4946 13.517 14.5318 13.5833 14.5318ZM15.0833 14.5318H14.8333C14.767 14.5318 14.7034 14.4946 14.6566 14.4284C14.6097 14.3621 14.5833 14.2723 14.5833 14.1786C14.5833 14.085 14.6097 13.9951 14.6566 13.9289C14.7034 13.8627 14.767 13.8254 14.8333 13.8254H15.0833C15.1496 13.8254 15.2132 13.8627 15.2601 13.9289C15.307 13.9951 15.3333 14.085 15.3333 14.1786C15.3333 14.2723 15.307 14.3621 15.2601 14.4284C15.2132 14.4946 15.1496 14.5318 15.0833 14.5318Z" fill="#EFEBF2"/>
<path fill-rule="evenodd" clip-rule="evenodd" d="M10.18 10.3215C10.2993 10.3215 10.4138 10.2632 10.4982 10.1594C10.5826 10.0556 10.63 9.91477 10.63 9.76795C10.63 9.62113 10.5826 9.48032 10.4982 9.37651C10.4138 9.27269 10.2993 9.21436 10.18 9.21436H9.73C9.61065 9.21436 9.4962 9.27269 9.4118 9.37651C9.32741 9.48032 9.28 9.62113 9.28 9.76795C9.28 9.91477 9.32741 10.0556 9.4118 10.1594C9.4962 10.2632 9.61065 10.3215 9.73 10.3215H10.18ZM12.88 15.8928H12.43V7.55359C12.43 7.40677 12.3826 7.26596 12.2982 7.16214C12.2138 7.05832 12.0993 7 11.98 7H5.68C5.56065 7 5.4462 7.05832 5.3618 7.16214C5.27741 7.26596 5.23 7.40677 5.23 7.55359V15.8928H4.78C4.66065 15.8928 4.5462 15.9511 4.4618 16.055C4.37741 16.1588 4.33 16.2996 4.33 16.4464C4.33 16.5932 4.37741 16.734 4.4618 16.8379C4.5462 16.9417 4.66065 17 4.78 17H12.88C12.9993 17 13.1138 16.9417 13.1982 16.8379C13.2826 16.734 13.33 16.5932 13.33 16.4464C13.33 16.2996 13.2826 16.1588 13.1982 16.055C13.1138 15.9511 12.9993 15.8928 12.88 15.8928ZM10.18 15.8928L7.5046 15.8928V13.6431H10.18V15.8928ZM7.93 10.3215H7.48C7.36065 10.3215 7.2462 10.2632 7.1618 10.1594C7.07741 10.0556 7.03 9.91477 7.03 9.76795C7.03 9.62113 7.07741 9.48032 7.1618 9.37651C7.2462 9.27269 7.36065 9.21436 7.48 9.21436H7.93C8.04935 9.21436 8.16381 9.27269 8.2482 9.37651C8.33259 9.48032 8.38 9.62113 8.38 9.76795C8.38 9.91477 8.33259 10.0556 8.2482 10.1594C8.16381 10.2632 8.04935 10.3215 7.93 10.3215ZM7.48 12.5359H7.93C8.04935 12.5359 8.16381 12.4776 8.2482 12.3738C8.33259 12.2699 8.38 12.1291 8.38 11.9823C8.38 11.8355 8.33259 11.6947 8.2482 11.5909C8.16381 11.487 8.04935 11.4287 7.93 11.4287H7.48C7.36065 11.4287 7.2462 11.487 7.1618 11.5909C7.07741 11.6947 7.03 11.8355 7.03 11.9823C7.03 12.1291 7.07741 12.2699 7.1618 12.3738C7.2462 12.4776 7.36065 12.5359 7.48 12.5359ZM10.18 12.5359H9.73C9.61065 12.5359 9.4962 12.4776 9.4118 12.3738C9.32741 12.2699 9.28 12.1291 9.28 11.9823C9.28 11.8355 9.32741 11.6947 9.4118 11.5909C9.4962 11.487 9.61065 11.4287 9.73 11.4287H10.18C10.2993 11.4287 10.4138 11.487 10.4982 11.5909C10.5826 11.6947 10.63 11.8355 10.63 11.9823C10.63 12.1291 10.5826 12.2699 10.4982 12.3738C10.4138 12.4776 10.2993 12.5359 10.18 12.5359Z" fill="#D0C2D8"/>
</svg>
