<svg width="20" height="20" viewBox="0 0 20 20" fill="none" xmlns="http://www.w3.org/2000/svg">
<rect width="20" height="20" fill="white"/>
<path d="M17.2 4.75H10L8.2 3H2.8C1.81 3 1.009 3.7875 1.009 4.75L1 15.25C1 16.2125 1.81 17 2.8 17H17.2C18.19 17 19 16.2125 19 15.25V6.5C19 5.5375 18.19 4.75 17.2 4.75Z" fill="#009883"/>
<path d="M11.8967 12.5846H16.4801C16.5594 12.5846 16.6354 12.6272 16.6915 12.7029C16.7475 12.7786 16.779 12.8814 16.779 12.9885C16.779 13.0956 16.7475 13.1983 16.6915 13.274C16.6354 13.3498 16.5594 13.3923 16.4801 13.3923H11.8967C11.8175 13.3923 11.7414 13.3498 11.6854 13.274C11.6293 13.1983 11.5978 13.0956 11.5978 12.9885C11.5978 12.8814 11.6293 12.7786 11.6854 12.7029C11.7414 12.6272 11.8175 12.5846 11.8967 12.5846ZM16.6365 10.7C17.0454 10.7 17.3769 11.0315 17.3769 11.4404C17.3769 11.8493 17.0454 12.1808 16.6365 12.1808H11.7404C11.3315 12.1808 11 11.8493 11 11.4404C11 11.0315 11.3315 10.7 11.7404 10.7H16.6365ZM12.6818 13.7962H13.7899V17H12.6818V13.7962ZM14.3877 13.7962H15.4837V17H14.3877V13.7962Z" fill="#B0E4DD"/>
<path d="M5.34512 10.8269H12.2202C12.3391 10.8269 12.4531 10.8907 12.5372 11.0043C12.6213 11.118 12.6685 11.272 12.6685 11.4327C12.6685 11.5934 12.6213 11.7474 12.5372 11.861C12.4531 11.9746 12.3391 12.0385 12.2202 12.0385H5.34512C5.2262 12.0385 5.11216 11.9746 5.02807 11.861C4.94399 11.7474 4.89675 11.5934 4.89675 11.4327C4.89675 11.272 4.94399 11.118 5.02807 11.0043C5.11216 10.8907 5.2262 10.8269 5.34512 10.8269ZM12.4547 8C13.0681 8 13.5653 8.49722 13.5653 9.11058C13.5653 9.72393 13.0681 10.2212 12.4547 10.2212H5.11058C4.49722 10.2212 4 9.72393 4 9.11058C4 8.49722 4.49722 8 5.11058 8H12.4547ZM6.52265 12.6442H8.18482V17H6.52265V12.6442ZM9.08156 12.6442H10.7256V17H9.08156V12.6442Z" fill="#D9F2EF"/>
</svg>
