<svg width="20" height="20" viewBox="0 0 20 20" fill="none" xmlns="http://www.w3.org/2000/svg">
<rect width="20" height="20" fill="white"/>
<path d="M17.2 4.75H10L8.2 3H2.8C1.81 3 1.009 3.7875 1.009 4.75L1 15.25C1 16.2125 1.81 17 2.8 17H17.2C18.19 17 19 16.2125 19 15.25V6.5C19 5.5375 18.19 4.75 17.2 4.75Z" fill="#FFC836"/>
<path fill-rule="evenodd" clip-rule="evenodd" d="M5.28571 17.0308H6.07143V14.5308C6.07143 13.9145 6.23593 13.3358 6.52428 12.8346C5.81628 12.9841 5.28571 13.6006 5.28571 14.3384V17.0308ZM6.85714 17.0308H13.1429V14.5308C13.1429 13.0438 11.9116 11.8384 10.3929 11.8384H9.60714C8.08836 11.8384 6.85714 13.0438 6.85714 14.5308V17.0308ZM13.9286 17.0308H14.7143V14.3384C14.7143 13.6006 14.1837 12.9841 13.4757 12.8346C13.7641 13.3358 13.9286 13.9145 13.9286 14.5308V17.0308ZM11.5714 9.33845C11.5714 10.1881 10.8679 10.8769 10 10.8769C9.13212 10.8769 8.42857 10.1881 8.42857 9.33845C8.42857 8.48878 9.13212 7.79999 10 7.79999C10.8679 7.79999 11.5714 8.48878 11.5714 9.33845ZM8.32622 10.9633C7.9185 10.5608 7.66123 10.012 7.6438 9.40443C7.52066 9.3617 7.3881 9.33845 7.25 9.33845C6.59909 9.33845 6.07143 9.85504 6.07143 10.4923C6.07143 11.1295 6.59909 11.6461 7.25 11.6461C7.72953 11.6461 8.14217 11.3658 8.32622 10.9633ZM12.3562 9.40444C12.3388 10.012 12.0815 10.5608 11.6738 10.9633C11.8578 11.3658 12.2705 11.6461 12.75 11.6461C13.4009 11.6461 13.9286 11.1295 13.9286 10.4923C13.9286 9.85504 13.4009 9.33845 12.75 9.33845C12.6119 9.33845 12.4793 9.36171 12.3562 9.40444Z" fill="#FFFCF4"/>
</svg>
